<svg width="223" height="58" viewBox="0 0 223 58" fill="none" xmlns="http://www.w3.org/2000/svg">
<path d="M8.1875 9.38281H9.6875C9.60938 10.1016 9.40365 10.7448 9.07031 11.3125C8.73698 11.8802 8.26562 12.3307 7.65625 12.6641C7.04688 12.9922 6.28646 13.1562 5.375 13.1562C4.70833 13.1562 4.10156 13.0312 3.55469 12.7812C3.01302 12.5312 2.54688 12.1771 2.15625 11.7188C1.76562 11.2552 1.46354 10.7005 1.25 10.0547C1.04167 9.40365 0.9375 8.67969 0.9375 7.88281V6.75C0.9375 5.95312 1.04167 5.23177 1.25 4.58594C1.46354 3.9349 1.76823 3.3776 2.16406 2.91406C2.5651 2.45052 3.04688 2.09375 3.60938 1.84375C4.17188 1.59375 4.80469 1.46875 5.50781 1.46875C6.36719 1.46875 7.09375 1.63021 7.6875 1.95312C8.28125 2.27604 8.74219 2.72396 9.07031 3.29688C9.40365 3.86458 9.60938 4.52344 9.6875 5.27344H8.1875C8.11458 4.74219 7.97917 4.28646 7.78125 3.90625C7.58333 3.52083 7.30208 3.22396 6.9375 3.01562C6.57292 2.80729 6.09635 2.70312 5.50781 2.70312C5.0026 2.70312 4.55729 2.79948 4.17188 2.99219C3.79167 3.1849 3.47135 3.45833 3.21094 3.8125C2.95573 4.16667 2.76302 4.59115 2.63281 5.08594C2.5026 5.58073 2.4375 6.13021 2.4375 6.73438V7.88281C2.4375 8.4401 2.49479 8.96354 2.60938 9.45312C2.72917 9.94271 2.90885 10.3724 3.14844 10.7422C3.38802 11.112 3.69271 11.4036 4.0625 11.6172C4.43229 11.8255 4.86979 11.9297 5.375 11.9297C6.01562 11.9297 6.52604 11.8281 6.90625 11.625C7.28646 11.4219 7.57292 11.1302 7.76562 10.75C7.96354 10.3698 8.10417 9.91406 8.1875 9.38281ZM17.5531 2.63281L13.7875 13H12.2484L16.5844 1.625H17.5766L17.5531 2.63281ZM20.7094 13L16.9359 2.63281L16.9125 1.625H17.9047L22.2563 13H20.7094ZM20.5141 8.78906V10.0234H14.1234V8.78906H20.5141ZM32.2781 11.7734V13H26.5906V11.7734H32.2781ZM26.8875 1.625V13H25.3797V1.625H26.8875ZM42.5031 11.7734V13H36.8156V11.7734H42.5031ZM37.1125 1.625V13H35.6047V1.625H37.1125ZM57.9062 1.625H59.4062V9.32031C59.4062 10.1745 59.2161 10.8854 58.8359 11.4531C58.4557 12.0208 57.9505 12.4479 57.3203 12.7344C56.6953 13.0156 56.0156 13.1562 55.2812 13.1562C54.5104 13.1562 53.8125 13.0156 53.1875 12.7344C52.5677 12.4479 52.0755 12.0208 51.7109 11.4531C51.3516 10.8854 51.1719 10.1745 51.1719 9.32031V1.625H52.6641V9.32031C52.6641 9.91406 52.7734 10.4036 52.9922 10.7891C53.2109 11.1745 53.5156 11.4609 53.9062 11.6484C54.3021 11.8359 54.7604 11.9297 55.2812 11.9297C55.8073 11.9297 56.2656 11.8359 56.6562 11.6484C57.0521 11.4609 57.3594 11.1745 57.5781 10.7891C57.7969 10.4036 57.9062 9.91406 57.9062 9.32031V1.625ZM69.4359 10.125C69.4359 9.85938 69.3943 9.625 69.3109 9.42188C69.2328 9.21354 69.0922 9.02604 68.8891 8.85938C68.6911 8.69271 68.4151 8.53385 68.0609 8.38281C67.712 8.23177 67.2693 8.07812 66.7328 7.92188C66.1703 7.75521 65.6625 7.57031 65.2094 7.36719C64.7562 7.15885 64.3682 6.92188 64.0453 6.65625C63.7224 6.39062 63.475 6.08594 63.3031 5.74219C63.1312 5.39844 63.0453 5.00521 63.0453 4.5625C63.0453 4.11979 63.1365 3.71094 63.3187 3.33594C63.501 2.96094 63.7615 2.63542 64.1 2.35938C64.4437 2.07812 64.8526 1.85938 65.3266 1.70312C65.8005 1.54688 66.3292 1.46875 66.9125 1.46875C67.7667 1.46875 68.4906 1.63281 69.0844 1.96094C69.6833 2.28385 70.1391 2.70833 70.4516 3.23438C70.7641 3.75521 70.9203 4.3125 70.9203 4.90625H69.4203C69.4203 4.47917 69.3292 4.10156 69.1469 3.77344C68.9646 3.4401 68.6885 3.17969 68.3187 2.99219C67.949 2.79948 67.4802 2.70312 66.9125 2.70312C66.376 2.70312 65.9333 2.78385 65.5844 2.94531C65.2354 3.10677 64.975 3.32552 64.8031 3.60156C64.6365 3.8776 64.5531 4.19271 64.5531 4.54688C64.5531 4.78646 64.6026 5.00521 64.7016 5.20312C64.8057 5.39583 64.9646 5.57552 65.1781 5.74219C65.3969 5.90885 65.6729 6.0625 66.0062 6.20312C66.3448 6.34375 66.7484 6.47917 67.2172 6.60938C67.863 6.79167 68.4203 6.99479 68.8891 7.21875C69.3578 7.44271 69.7432 7.69531 70.0453 7.97656C70.3526 8.2526 70.5792 8.56771 70.725 8.92188C70.876 9.27083 70.9516 9.66667 70.9516 10.1094C70.9516 10.5729 70.8578 10.9922 70.6703 11.3672C70.4828 11.7422 70.2146 12.0625 69.8656 12.3281C69.5167 12.5938 69.0974 12.7995 68.6078 12.9453C68.1234 13.0859 67.5818 13.1562 66.9828 13.1562C66.4568 13.1562 65.9385 13.0833 65.4281 12.9375C64.9229 12.7917 64.462 12.5729 64.0453 12.2812C63.6339 11.9896 63.3031 11.6302 63.0531 11.2031C62.8083 10.7708 62.6859 10.2708 62.6859 9.70312H64.1859C64.1859 10.0938 64.2615 10.4297 64.4125 10.7109C64.5635 10.987 64.7693 11.2161 65.0297 11.3984C65.2953 11.5807 65.5948 11.7161 65.9281 11.8047C66.2667 11.888 66.6182 11.9297 66.9828 11.9297C67.5089 11.9297 67.9542 11.8568 68.3187 11.7109C68.6833 11.5651 68.9594 11.3568 69.1469 11.0859C69.3396 10.8151 69.4359 10.4948 69.4359 10.125ZM88.7922 1.625V13H87.2766L81.55 4.22656V13H80.0422V1.625H81.55L87.3 10.4219V1.625H88.7922ZM101.822 6.95312V7.67188C101.822 8.52604 101.715 9.29167 101.502 9.96875C101.288 10.6458 100.981 11.2214 100.58 11.6953C100.179 12.1693 99.6969 12.5312 99.1344 12.7812C98.5771 13.0312 97.9521 13.1562 97.2594 13.1562C96.5875 13.1562 95.9703 13.0312 95.4078 12.7812C94.8505 12.5312 94.3661 12.1693 93.9547 11.6953C93.5484 11.2214 93.2333 10.6458 93.0094 9.96875C92.7854 9.29167 92.6734 8.52604 92.6734 7.67188V6.95312C92.6734 6.09896 92.7828 5.33594 93.0016 4.66406C93.2255 3.98698 93.5406 3.41146 93.9469 2.9375C94.3531 2.45833 94.8349 2.09375 95.3922 1.84375C95.9547 1.59375 96.5719 1.46875 97.2438 1.46875C97.9365 1.46875 98.5615 1.59375 99.1188 1.84375C99.6813 2.09375 100.163 2.45833 100.564 2.9375C100.97 3.41146 101.28 3.98698 101.494 4.66406C101.713 5.33594 101.822 6.09896 101.822 6.95312ZM100.33 7.67188V6.9375C100.33 6.26042 100.259 5.66146 100.119 5.14062C99.9833 4.61979 99.7828 4.18229 99.5172 3.82812C99.2516 3.47396 98.926 3.20573 98.5406 3.02344C98.1604 2.84115 97.7281 2.75 97.2438 2.75C96.775 2.75 96.3505 2.84115 95.9703 3.02344C95.5953 3.20573 95.2724 3.47396 95.0016 3.82812C94.7359 4.18229 94.5302 4.61979 94.3844 5.14062C94.2385 5.66146 94.1656 6.26042 94.1656 6.9375V7.67188C94.1656 8.35417 94.2385 8.95833 94.3844 9.48438C94.5302 10.0052 94.7385 10.4453 95.0094 10.8047C95.2854 11.1589 95.6109 11.4271 95.9859 11.6094C96.3661 11.7917 96.7906 11.8828 97.2594 11.8828C97.749 11.8828 98.1839 11.7917 98.5641 11.6094C98.9443 11.4271 99.2646 11.1589 99.525 10.8047C99.7906 10.4453 99.9911 10.0052 100.127 9.48438C100.262 8.95833 100.33 8.35417 100.33 7.67188ZM108.672 9.5625L110.93 1.625H112.023L111.391 4.71094L108.961 13H107.875L108.672 9.5625ZM106.336 1.625L108.133 9.40625L108.672 13H107.594L104.836 1.625H106.336ZM114.945 9.39844L116.703 1.625H118.211L115.461 13H114.383L114.945 9.39844ZM112.188 1.625L114.383 9.5625L115.18 13H114.094L111.75 4.71094L111.109 1.625H112.188Z" fill="#6E7191"/>
<path d="M1.70898 41.207V40.9062C1.70898 38.9831 1.90951 37.2376 2.31055 35.6699C2.7207 34.1022 3.25846 32.7259 3.92383 31.541C4.59831 30.347 5.33203 29.3581 6.125 28.5742C6.91797 27.7904 7.70638 27.2253 8.49023 26.8789L9.24219 28.957C8.72266 29.3398 8.21224 29.8685 7.71094 30.543C7.20964 31.2083 6.75391 32.0286 6.34375 33.0039C5.94271 33.9701 5.61914 35.1094 5.37305 36.4219C5.12695 37.7253 5.00391 39.2109 5.00391 40.8789V41.2344C5.00391 42.9023 5.12695 44.3926 5.37305 45.7051C5.61914 47.0085 5.94271 48.1478 6.34375 49.123C6.75391 50.1074 7.20964 50.9368 7.71094 51.6113C8.21224 52.2858 8.72266 52.819 9.24219 53.2109L8.49023 55.2344C7.70638 54.888 6.91797 54.3229 6.125 53.5391C5.33203 52.7643 4.59831 51.7799 3.92383 50.5859C3.25846 49.401 2.7207 48.0247 2.31055 46.457C1.90951 44.8802 1.70898 43.1302 1.70898 41.207ZM25.1016 41.5625V44.6523H10.7598L10.5684 42.2598L18.8672 29.0938H21.998L18.6074 34.7676L14.4785 41.5625H25.1016ZM22.8457 29.0938V49H18.9082V29.0938H22.8457ZM36.832 29.0527V49H32.8945V33.5918L28.1641 35.0957V31.9922L36.4082 29.0527H36.832ZM57.2578 41.5625V44.6523H42.916L42.7246 42.2598L51.0234 29.0938H54.1543L50.7637 34.7676L46.6348 41.5625H57.2578ZM55.002 29.0938V49H51.0645V29.0938H55.002ZM66.3223 40.9062V41.207C66.3223 43.0664 66.1126 44.7799 65.6934 46.3477C65.2741 47.9062 64.7181 49.2871 64.0254 50.4902C63.3418 51.7025 62.5898 52.7096 61.7695 53.5117C60.9583 54.3138 60.1471 54.888 59.3359 55.2344L58.5703 53.2109C59.0898 52.8281 59.5957 52.2995 60.0879 51.625C60.5892 50.9505 61.0449 50.1211 61.4551 49.1367C61.8652 48.1615 62.1888 47.0176 62.4258 45.7051C62.6719 44.3926 62.7949 42.9023 62.7949 41.2344V40.8789C62.7949 39.2109 62.6719 37.7207 62.4258 36.4082C62.1797 35.0957 61.847 33.9518 61.4277 32.9766C61.0176 31.9922 60.5618 31.1673 60.0605 30.502C59.5684 29.8275 59.0716 29.2988 58.5703 28.916L59.3359 26.8789C60.1471 27.2253 60.9583 27.804 61.7695 28.6152C62.5898 29.4173 63.3418 30.4199 64.0254 31.623C64.7181 32.8262 65.2741 34.2116 65.6934 35.7793C66.1126 37.3379 66.3223 39.0469 66.3223 40.9062ZM79.9121 39.9355L76.7676 39.1836L77.9023 29.0938H89.0859V32.2793H81.1426L80.6504 36.6953C80.9147 36.5404 81.3158 36.3763 81.8535 36.2031C82.3913 36.0208 82.9928 35.9297 83.6582 35.9297C84.6243 35.9297 85.4811 36.0801 86.2285 36.3809C86.9759 36.6816 87.6094 37.1191 88.1289 37.6934C88.6576 38.2676 89.0586 38.9694 89.332 39.7988C89.6055 40.6283 89.7422 41.5671 89.7422 42.6152C89.7422 43.4993 89.6055 44.3424 89.332 45.1445C89.0586 45.9375 88.6439 46.6484 88.0879 47.2773C87.5319 47.8971 86.8346 48.3848 85.9961 48.7402C85.1576 49.0957 84.1641 49.2734 83.0156 49.2734C82.1589 49.2734 81.3294 49.1458 80.5273 48.8906C79.7344 48.6354 79.0189 48.2572 78.3809 47.7559C77.752 47.2546 77.2461 46.6484 76.8633 45.9375C76.4896 45.2174 76.2936 44.3971 76.2754 43.4766H80.1855C80.2402 44.0417 80.3861 44.5293 80.623 44.9395C80.8691 45.3405 81.1927 45.6504 81.5938 45.8691C81.9948 46.0879 82.4642 46.1973 83.002 46.1973C83.5033 46.1973 83.9316 46.1016 84.2871 45.9102C84.6426 45.7188 84.9297 45.4544 85.1484 45.1172C85.3672 44.7708 85.5267 44.3698 85.627 43.9141C85.7363 43.4492 85.791 42.9479 85.791 42.4102C85.791 41.8724 85.7272 41.3848 85.5996 40.9473C85.472 40.5098 85.276 40.1315 85.0117 39.8125C84.7474 39.4935 84.4102 39.2474 84 39.0742C83.599 38.901 83.1296 38.8145 82.5918 38.8145C81.8626 38.8145 81.2975 38.9284 80.8965 39.1562C80.5046 39.3841 80.1764 39.6439 79.9121 39.9355ZM102.443 28.8887H103.018V32.0332H102.785C101.746 32.0332 100.821 32.1882 100.01 32.498C99.1986 32.8079 98.5104 33.25 97.9453 33.8242C97.3893 34.3893 96.9609 35.0729 96.6602 35.875C96.3685 36.6771 96.2227 37.5749 96.2227 38.5684V41.877C96.2227 42.5879 96.291 43.2168 96.4277 43.7637C96.5736 44.3014 96.7786 44.7526 97.043 45.1172C97.3164 45.4727 97.6354 45.7415 98 45.9238C98.3646 46.097 98.7747 46.1836 99.2305 46.1836C99.6589 46.1836 100.046 46.0924 100.393 45.9102C100.748 45.7279 101.049 45.4727 101.295 45.1445C101.55 44.8073 101.742 44.4154 101.869 43.9688C102.006 43.513 102.074 43.0163 102.074 42.4785C102.074 41.9408 102.006 41.444 101.869 40.9883C101.742 40.5326 101.55 40.1406 101.295 39.8125C101.04 39.4753 100.73 39.2155 100.365 39.0332C100.001 38.8509 99.5905 38.7598 99.1348 38.7598C98.515 38.7598 97.9681 38.9056 97.4941 39.1973C97.0293 39.4798 96.6647 39.8444 96.4004 40.291C96.1361 40.7376 95.9948 41.207 95.9766 41.6992L94.7871 40.9336C94.8145 40.2318 94.9603 39.5664 95.2246 38.9375C95.498 38.3086 95.8717 37.7526 96.3457 37.2695C96.8288 36.7773 97.4076 36.3945 98.082 36.1211C98.7565 35.8385 99.5176 35.6973 100.365 35.6973C101.295 35.6973 102.111 35.875 102.812 36.2305C103.523 36.5859 104.116 37.0736 104.59 37.6934C105.064 38.3132 105.419 39.0286 105.656 39.8398C105.893 40.651 106.012 41.5169 106.012 42.4375C106.012 43.4036 105.852 44.3014 105.533 45.1309C105.223 45.9603 104.772 46.6849 104.18 47.3047C103.596 47.9245 102.895 48.4076 102.074 48.7539C101.254 49.1003 100.333 49.2734 99.3125 49.2734C98.2552 49.2734 97.2936 49.082 96.4277 48.6992C95.571 48.3073 94.8327 47.7604 94.2129 47.0586C93.5931 46.3568 93.1146 45.5228 92.7773 44.5566C92.4492 43.5905 92.2852 42.5332 92.2852 41.3848V39.8535C92.2852 38.2493 92.5176 36.7819 92.9824 35.4512C93.4564 34.1113 94.1354 32.9538 95.0195 31.9785C95.9036 30.9941 96.9701 30.2331 98.2188 29.6953C99.4674 29.1576 100.876 28.8887 102.443 28.8887ZM121.885 29.0938V31.2129L114.188 49H110.031L117.729 32.1699H107.816V29.0938H121.885ZM139.344 38.9102V42H131.619V38.9102H139.344ZM163.051 45.9238V49H149.434V46.375L155.873 39.4707C156.52 38.7507 157.031 38.1172 157.404 37.5703C157.778 37.0143 158.047 36.5176 158.211 36.0801C158.384 35.6335 158.471 35.2096 158.471 34.8086C158.471 34.207 158.37 33.6921 158.17 33.2637C157.969 32.8262 157.673 32.4889 157.281 32.252C156.898 32.015 156.424 31.8965 155.859 31.8965C155.258 31.8965 154.738 32.0423 154.301 32.334C153.872 32.6257 153.544 33.0312 153.316 33.5508C153.098 34.0703 152.988 34.6582 152.988 35.3145H149.037C149.037 34.1296 149.32 33.0449 149.885 32.0605C150.45 31.0671 151.247 30.2786 152.277 29.6953C153.307 29.1029 154.529 28.8066 155.941 28.8066C157.336 28.8066 158.512 29.0345 159.469 29.4902C160.435 29.9368 161.164 30.584 161.656 31.4316C162.158 32.2702 162.408 33.2728 162.408 34.4395C162.408 35.0957 162.303 35.7383 162.094 36.3672C161.884 36.987 161.583 37.6068 161.191 38.2266C160.809 38.8372 160.344 39.457 159.797 40.0859C159.25 40.7148 158.644 41.3665 157.979 42.041L154.52 45.9238H163.051ZM175.109 29.0527V49H171.172V33.5918L166.441 35.0957V31.9922L174.686 29.0527H175.109ZM194.988 37.2969V40.7422C194.988 42.237 194.829 43.5267 194.51 44.6113C194.191 45.6868 193.73 46.571 193.129 47.2637C192.536 47.9473 191.83 48.4531 191.01 48.7812C190.189 49.1094 189.278 49.2734 188.275 49.2734C187.473 49.2734 186.726 49.1732 186.033 48.9727C185.34 48.763 184.716 48.4395 184.16 48.002C183.613 47.5645 183.139 47.013 182.738 46.3477C182.346 45.6732 182.046 44.8711 181.836 43.9414C181.626 43.0117 181.521 41.9453 181.521 40.7422V37.2969C181.521 35.8021 181.681 34.5215 182 33.4551C182.328 32.3796 182.788 31.5 183.381 30.8164C183.982 30.1328 184.693 29.6315 185.514 29.3125C186.334 28.9844 187.245 28.8203 188.248 28.8203C189.05 28.8203 189.793 28.9251 190.477 29.1348C191.169 29.3353 191.794 29.6497 192.35 30.0781C192.906 30.5065 193.38 31.0579 193.771 31.7324C194.163 32.3978 194.464 33.1953 194.674 34.125C194.883 35.0456 194.988 36.1029 194.988 37.2969ZM191.037 41.2617V36.7637C191.037 36.0436 190.996 35.4147 190.914 34.877C190.841 34.3392 190.727 33.8835 190.572 33.5098C190.417 33.127 190.226 32.8171 189.998 32.5801C189.77 32.3431 189.51 32.1699 189.219 32.0605C188.927 31.9512 188.604 31.8965 188.248 31.8965C187.801 31.8965 187.405 31.9831 187.059 32.1562C186.721 32.3294 186.434 32.6074 186.197 32.9902C185.96 33.3639 185.778 33.8652 185.65 34.4941C185.532 35.1139 185.473 35.8704 185.473 36.7637V41.2617C185.473 41.9818 185.509 42.6152 185.582 43.1621C185.664 43.709 185.783 44.1784 185.938 44.5703C186.102 44.9531 186.293 45.2676 186.512 45.5137C186.74 45.7507 186.999 45.9238 187.291 46.0332C187.592 46.1426 187.92 46.1973 188.275 46.1973C188.713 46.1973 189.1 46.1107 189.438 45.9375C189.784 45.7552 190.076 45.4727 190.312 45.0898C190.559 44.6979 190.741 44.1875 190.859 43.5586C190.978 42.9297 191.037 42.1641 191.037 41.2617ZM200.457 46.0059H200.717C201.811 46.0059 202.749 45.8737 203.533 45.6094C204.326 45.3359 204.978 44.944 205.488 44.4336C205.999 43.9232 206.377 43.2988 206.623 42.5605C206.869 41.8132 206.992 40.9655 206.992 40.0176V36.2441C206.992 35.5241 206.919 34.8906 206.773 34.3438C206.637 33.7969 206.436 33.3457 206.172 32.9902C205.917 32.6257 205.616 32.3522 205.27 32.1699C204.932 31.9876 204.559 31.8965 204.148 31.8965C203.711 31.8965 203.324 32.0059 202.986 32.2246C202.649 32.4342 202.362 32.7214 202.125 33.0859C201.897 33.4505 201.719 33.8698 201.592 34.3438C201.473 34.8086 201.414 35.2962 201.414 35.8066C201.414 36.3171 201.473 36.8047 201.592 37.2695C201.71 37.7253 201.888 38.1309 202.125 38.4863C202.362 38.8327 202.658 39.1107 203.014 39.3203C203.369 39.5208 203.788 39.6211 204.271 39.6211C204.736 39.6211 205.151 39.5345 205.516 39.3613C205.889 39.179 206.204 38.9421 206.459 38.6504C206.723 38.3587 206.924 38.0352 207.061 37.6797C207.206 37.3242 207.279 36.9642 207.279 36.5996L208.578 37.3105C208.578 37.9486 208.441 38.5775 208.168 39.1973C207.895 39.8171 207.512 40.3822 207.02 40.8926C206.536 41.3939 205.976 41.7949 205.338 42.0957C204.7 42.3965 204.016 42.5469 203.287 42.5469C202.357 42.5469 201.533 42.3783 200.812 42.041C200.092 41.6947 199.482 41.2207 198.98 40.6191C198.488 40.0085 198.115 39.2975 197.859 38.4863C197.604 37.6751 197.477 36.7956 197.477 35.8477C197.477 34.8815 197.632 33.9746 197.941 33.127C198.26 32.2793 198.712 31.5319 199.295 30.8848C199.887 30.2376 200.594 29.7318 201.414 29.3672C202.243 28.9935 203.164 28.8066 204.176 28.8066C205.188 28.8066 206.108 29.0026 206.938 29.3945C207.767 29.7865 208.478 30.3424 209.07 31.0625C209.663 31.7734 210.118 32.6257 210.438 33.6191C210.766 34.6126 210.93 35.7155 210.93 36.9277V38.2949C210.93 39.5892 210.788 40.7923 210.506 41.9043C210.232 43.0163 209.818 44.0234 209.262 44.9258C208.715 45.819 208.031 46.5846 207.211 47.2227C206.4 47.8607 205.456 48.3483 204.381 48.6855C203.305 49.0228 202.102 49.1914 200.771 49.1914H200.457V46.0059Z" fill="#211F54"/>
</svg>
