<svg width="210" height="30" viewBox="0 0 210 30" fill="none" xmlns="http://www.w3.org/2000/svg">
<path d="M0.708984 15.207V14.9062C0.708984 12.9831 0.909505 11.2376 1.31055 9.66992C1.7207 8.10221 2.25846 6.72591 2.92383 5.54102C3.59831 4.34701 4.33203 3.35807 5.125 2.57422C5.91797 1.79036 6.70638 1.22526 7.49023 0.878906L8.24219 2.95703C7.72266 3.33984 7.21224 3.86849 6.71094 4.54297C6.20964 5.20833 5.75391 6.02865 5.34375 7.00391C4.94271 7.97005 4.61914 9.10938 4.37305 10.4219C4.12695 11.7253 4.00391 13.2109 4.00391 14.8789V15.2344C4.00391 16.9023 4.12695 18.3926 4.37305 19.7051C4.61914 21.0085 4.94271 22.1478 5.34375 23.123C5.75391 24.1074 6.20964 24.9368 6.71094 25.6113C7.21224 26.2858 7.72266 26.819 8.24219 27.2109L7.49023 29.2344C6.70638 28.888 5.91797 28.3229 5.125 27.5391C4.33203 26.7643 3.59831 25.7799 2.92383 24.5859C2.25846 23.401 1.7207 22.0247 1.31055 20.457C0.909505 18.8802 0.708984 17.1302 0.708984 15.207ZM24.1016 15.5625V18.6523H9.75977L9.56836 16.2598L17.8672 3.09375H20.998L17.6074 8.76758L13.4785 15.5625H24.1016ZM21.8457 3.09375V23H17.9082V3.09375H21.8457ZM35.832 3.05273V23H31.8945V7.5918L27.1641 9.0957V5.99219L35.4082 3.05273H35.832ZM56.2578 15.5625V18.6523H41.916L41.7246 16.2598L50.0234 3.09375H53.1543L49.7637 8.76758L45.6348 15.5625H56.2578ZM54.002 3.09375V23H50.0645V3.09375H54.002ZM65.3223 14.9062V15.207C65.3223 17.0664 65.1126 18.7799 64.6934 20.3477C64.2741 21.9062 63.7181 23.2871 63.0254 24.4902C62.3418 25.7025 61.5898 26.7096 60.7695 27.5117C59.9583 28.3138 59.1471 28.888 58.3359 29.2344L57.5703 27.2109C58.0898 26.8281 58.5957 26.2995 59.0879 25.625C59.5892 24.9505 60.0449 24.1211 60.4551 23.1367C60.8652 22.1615 61.1888 21.0176 61.4258 19.7051C61.6719 18.3926 61.7949 16.9023 61.7949 15.2344V14.8789C61.7949 13.2109 61.6719 11.7207 61.4258 10.4082C61.1797 9.0957 60.847 7.95182 60.4277 6.97656C60.0176 5.99219 59.5618 5.16732 59.0605 4.50195C58.5684 3.82747 58.0716 3.29883 57.5703 2.91602L58.3359 0.878906C59.1471 1.22526 59.9583 1.80404 60.7695 2.61523C61.5898 3.41732 62.3418 4.41992 63.0254 5.62305C63.7181 6.82617 64.2741 8.21159 64.6934 9.7793C65.1126 11.3379 65.3223 13.0469 65.3223 14.9062ZM78.9121 13.9355L75.7676 13.1836L76.9023 3.09375H88.0859V6.2793H80.1426L79.6504 10.6953C79.9147 10.5404 80.3158 10.3763 80.8535 10.2031C81.3913 10.0208 81.9928 9.92969 82.6582 9.92969C83.6243 9.92969 84.4811 10.0801 85.2285 10.3809C85.9759 10.6816 86.6094 11.1191 87.1289 11.6934C87.6576 12.2676 88.0586 12.9694 88.332 13.7988C88.6055 14.6283 88.7422 15.5671 88.7422 16.6152C88.7422 17.4993 88.6055 18.3424 88.332 19.1445C88.0586 19.9375 87.6439 20.6484 87.0879 21.2773C86.5319 21.8971 85.8346 22.3848 84.9961 22.7402C84.1576 23.0957 83.1641 23.2734 82.0156 23.2734C81.1589 23.2734 80.3294 23.1458 79.5273 22.8906C78.7344 22.6354 78.0189 22.2572 77.3809 21.7559C76.752 21.2546 76.2461 20.6484 75.8633 19.9375C75.4896 19.2174 75.2936 18.3971 75.2754 17.4766H79.1855C79.2402 18.0417 79.3861 18.5293 79.623 18.9395C79.8691 19.3405 80.1927 19.6504 80.5938 19.8691C80.9948 20.0879 81.4642 20.1973 82.002 20.1973C82.5033 20.1973 82.9316 20.1016 83.2871 19.9102C83.6426 19.7188 83.9297 19.4544 84.1484 19.1172C84.3672 18.7708 84.5267 18.3698 84.627 17.9141C84.7363 17.4492 84.791 16.9479 84.791 16.4102C84.791 15.8724 84.7272 15.3848 84.5996 14.9473C84.472 14.5098 84.276 14.1315 84.0117 13.8125C83.7474 13.4935 83.4102 13.2474 83 13.0742C82.599 12.901 82.1296 12.8145 81.5918 12.8145C80.8626 12.8145 80.2975 12.9284 79.8965 13.1562C79.5046 13.3841 79.1764 13.6439 78.9121 13.9355ZM101.443 2.88867H102.018V6.0332H101.785C100.746 6.0332 99.821 6.18815 99.0098 6.49805C98.1986 6.80794 97.5104 7.25 96.9453 7.82422C96.3893 8.38932 95.9609 9.07292 95.6602 9.875C95.3685 10.6771 95.2227 11.5749 95.2227 12.5684V15.877C95.2227 16.5879 95.291 17.2168 95.4277 17.7637C95.5736 18.3014 95.7786 18.7526 96.043 19.1172C96.3164 19.4727 96.6354 19.7415 97 19.9238C97.3646 20.097 97.7747 20.1836 98.2305 20.1836C98.6589 20.1836 99.0462 20.0924 99.3926 19.9102C99.748 19.7279 100.049 19.4727 100.295 19.1445C100.55 18.8073 100.742 18.4154 100.869 17.9688C101.006 17.513 101.074 17.0163 101.074 16.4785C101.074 15.9408 101.006 15.444 100.869 14.9883C100.742 14.5326 100.55 14.1406 100.295 13.8125C100.04 13.4753 99.7298 13.2155 99.3652 13.0332C99.0007 12.8509 98.5905 12.7598 98.1348 12.7598C97.515 12.7598 96.9681 12.9056 96.4941 13.1973C96.0293 13.4798 95.6647 13.8444 95.4004 14.291C95.1361 14.7376 94.9948 15.207 94.9766 15.6992L93.7871 14.9336C93.8145 14.2318 93.9603 13.5664 94.2246 12.9375C94.498 12.3086 94.8717 11.7526 95.3457 11.2695C95.8288 10.7773 96.4076 10.3945 97.082 10.1211C97.7565 9.83854 98.5176 9.69727 99.3652 9.69727C100.295 9.69727 101.111 9.875 101.812 10.2305C102.523 10.5859 103.116 11.0736 103.59 11.6934C104.064 12.3132 104.419 13.0286 104.656 13.8398C104.893 14.651 105.012 15.5169 105.012 16.4375C105.012 17.4036 104.852 18.3014 104.533 19.1309C104.223 19.9603 103.772 20.6849 103.18 21.3047C102.596 21.9245 101.895 22.4076 101.074 22.7539C100.254 23.1003 99.3333 23.2734 98.3125 23.2734C97.2552 23.2734 96.2936 23.082 95.4277 22.6992C94.571 22.3073 93.8327 21.7604 93.2129 21.0586C92.5931 20.3568 92.1146 19.5228 91.7773 18.5566C91.4492 17.5905 91.2852 16.5332 91.2852 15.3848V13.8535C91.2852 12.2493 91.5176 10.7819 91.9824 9.45117C92.4564 8.11133 93.1354 6.95378 94.0195 5.97852C94.9036 4.99414 95.9701 4.23307 97.2188 3.69531C98.4674 3.15755 99.8757 2.88867 101.443 2.88867ZM120.885 3.09375V5.21289L113.188 23H109.031L116.729 6.16992H106.816V3.09375H120.885ZM138.344 12.9102V16H130.619V12.9102H138.344ZM162.051 19.9238V23H148.434V20.375L154.873 13.4707C155.52 12.7507 156.031 12.1172 156.404 11.5703C156.778 11.0143 157.047 10.5176 157.211 10.0801C157.384 9.63346 157.471 9.20964 157.471 8.80859C157.471 8.20703 157.37 7.69206 157.17 7.26367C156.969 6.82617 156.673 6.48893 156.281 6.25195C155.898 6.01497 155.424 5.89648 154.859 5.89648C154.258 5.89648 153.738 6.04232 153.301 6.33398C152.872 6.62565 152.544 7.03125 152.316 7.55078C152.098 8.07031 151.988 8.6582 151.988 9.31445H148.037C148.037 8.12956 148.32 7.04492 148.885 6.06055C149.45 5.06706 150.247 4.27865 151.277 3.69531C152.307 3.10286 153.529 2.80664 154.941 2.80664C156.336 2.80664 157.512 3.03451 158.469 3.49023C159.435 3.93685 160.164 4.58398 160.656 5.43164C161.158 6.27018 161.408 7.27279 161.408 8.43945C161.408 9.0957 161.303 9.73828 161.094 10.3672C160.884 10.987 160.583 11.6068 160.191 12.2266C159.809 12.8372 159.344 13.457 158.797 14.0859C158.25 14.7148 157.644 15.3665 156.979 16.041L153.52 19.9238H162.051ZM174.109 3.05273V23H170.172V7.5918L165.441 9.0957V5.99219L173.686 3.05273H174.109ZM193.988 11.2969V14.7422C193.988 16.237 193.829 17.5267 193.51 18.6113C193.191 19.6868 192.73 20.571 192.129 21.2637C191.536 21.9473 190.83 22.4531 190.01 22.7812C189.189 23.1094 188.278 23.2734 187.275 23.2734C186.473 23.2734 185.726 23.1732 185.033 22.9727C184.34 22.763 183.716 22.4395 183.16 22.002C182.613 21.5645 182.139 21.013 181.738 20.3477C181.346 19.6732 181.046 18.8711 180.836 17.9414C180.626 17.0117 180.521 15.9453 180.521 14.7422V11.2969C180.521 9.80208 180.681 8.52148 181 7.45508C181.328 6.37956 181.788 5.5 182.381 4.81641C182.982 4.13281 183.693 3.63151 184.514 3.3125C185.334 2.98438 186.245 2.82031 187.248 2.82031C188.05 2.82031 188.793 2.92513 189.477 3.13477C190.169 3.33529 190.794 3.64974 191.35 4.07812C191.906 4.50651 192.38 5.05794 192.771 5.73242C193.163 6.39779 193.464 7.19531 193.674 8.125C193.883 9.04557 193.988 10.1029 193.988 11.2969ZM190.037 15.2617V10.7637C190.037 10.0436 189.996 9.41471 189.914 8.87695C189.841 8.33919 189.727 7.88346 189.572 7.50977C189.417 7.12695 189.226 6.81706 188.998 6.58008C188.77 6.3431 188.51 6.16992 188.219 6.06055C187.927 5.95117 187.604 5.89648 187.248 5.89648C186.801 5.89648 186.405 5.98307 186.059 6.15625C185.721 6.32943 185.434 6.60742 185.197 6.99023C184.96 7.36393 184.778 7.86523 184.65 8.49414C184.532 9.11393 184.473 9.87044 184.473 10.7637V15.2617C184.473 15.9818 184.509 16.6152 184.582 17.1621C184.664 17.709 184.783 18.1784 184.938 18.5703C185.102 18.9531 185.293 19.2676 185.512 19.5137C185.74 19.7507 185.999 19.9238 186.291 20.0332C186.592 20.1426 186.92 20.1973 187.275 20.1973C187.713 20.1973 188.1 20.1107 188.438 19.9375C188.784 19.7552 189.076 19.4727 189.312 19.0898C189.559 18.6979 189.741 18.1875 189.859 17.5586C189.978 16.9297 190.037 16.1641 190.037 15.2617ZM199.457 20.0059H199.717C200.811 20.0059 201.749 19.8737 202.533 19.6094C203.326 19.3359 203.978 18.944 204.488 18.4336C204.999 17.9232 205.377 17.2988 205.623 16.5605C205.869 15.8132 205.992 14.9655 205.992 14.0176V10.2441C205.992 9.52409 205.919 8.89062 205.773 8.34375C205.637 7.79688 205.436 7.3457 205.172 6.99023C204.917 6.62565 204.616 6.35221 204.27 6.16992C203.932 5.98763 203.559 5.89648 203.148 5.89648C202.711 5.89648 202.324 6.00586 201.986 6.22461C201.649 6.43424 201.362 6.72135 201.125 7.08594C200.897 7.45052 200.719 7.86979 200.592 8.34375C200.473 8.80859 200.414 9.29622 200.414 9.80664C200.414 10.3171 200.473 10.8047 200.592 11.2695C200.71 11.7253 200.888 12.1309 201.125 12.4863C201.362 12.8327 201.658 13.1107 202.014 13.3203C202.369 13.5208 202.788 13.6211 203.271 13.6211C203.736 13.6211 204.151 13.5345 204.516 13.3613C204.889 13.179 205.204 12.9421 205.459 12.6504C205.723 12.3587 205.924 12.0352 206.061 11.6797C206.206 11.3242 206.279 10.9642 206.279 10.5996L207.578 11.3105C207.578 11.9486 207.441 12.5775 207.168 13.1973C206.895 13.8171 206.512 14.3822 206.02 14.8926C205.536 15.3939 204.976 15.7949 204.338 16.0957C203.7 16.3965 203.016 16.5469 202.287 16.5469C201.357 16.5469 200.533 16.3783 199.812 16.041C199.092 15.6947 198.482 15.2207 197.98 14.6191C197.488 14.0085 197.115 13.2975 196.859 12.4863C196.604 11.6751 196.477 10.7956 196.477 9.84766C196.477 8.88151 196.632 7.97461 196.941 7.12695C197.26 6.2793 197.712 5.5319 198.295 4.88477C198.887 4.23763 199.594 3.73177 200.414 3.36719C201.243 2.99349 202.164 2.80664 203.176 2.80664C204.188 2.80664 205.108 3.0026 205.938 3.39453C206.767 3.78646 207.478 4.34245 208.07 5.0625C208.663 5.77344 209.118 6.62565 209.438 7.61914C209.766 8.61263 209.93 9.71549 209.93 10.9277V12.2949C209.93 13.5892 209.788 14.7923 209.506 15.9043C209.232 17.0163 208.818 18.0234 208.262 18.9258C207.715 19.819 207.031 20.5846 206.211 21.2227C205.4 21.8607 204.456 22.3483 203.381 22.6855C202.305 23.0228 201.102 23.1914 199.771 23.1914H199.457V20.0059Z" fill="#0075FF"/>
</svg>
