<svg width="497" height="93" viewBox="0 0 497 93" fill="none" xmlns="http://www.w3.org/2000/svg">
<g clip-path="url(#clip0_1_1630)" filter="url(#filter0_d_1_1630)">
<path d="M45.9711 77.9375C65.5615 77.9375 81.4427 62.0436 81.4427 42.4375C81.4427 22.8314 65.5615 6.9375 45.9711 6.9375C26.3807 6.9375 10.4996 22.8314 10.4996 42.4375C10.4996 62.0436 26.3807 77.9375 45.9711 77.9375Z" fill="white" stroke="#DCDDEB"/>
<path d="M57.0479 59.822C57.0355 59.822 57.0232 59.822 57.0108 59.822C51.0771 59.6275 44.1255 53.8711 39.336 49.0746C34.5402 44.2782 28.7884 37.318 28.6034 31.4073C28.5355 29.3331 33.6213 25.6447 33.6736 25.6076C34.9937 24.6879 36.4586 25.015 37.06 25.8484C37.4671 26.4132 41.3222 32.2591 41.7415 32.9228C42.1764 33.6111 42.1116 34.6358 41.5689 35.6636C41.2697 36.2346 40.2766 37.9816 39.811 38.7965C40.3137 39.5125 41.6429 41.2688 44.3877 44.0158C47.1356 46.7628 48.8874 48.0962 49.6059 48.5993C50.4202 48.1332 52.1658 47.1394 52.7363 46.84C53.7478 46.3029 54.7656 46.235 55.4595 46.661C56.1689 47.0962 61.9947 50.9729 62.5313 51.3463C62.9816 51.6643 63.2715 52.2075 63.33 52.8402C63.3856 53.4791 63.1882 54.1551 62.7781 54.7446C62.7441 54.794 59.1018 59.822 57.0479 59.822Z" fill="#0075FF"/>
</g>
<path d="M106.117 22.8203H107.617C107.539 23.5391 107.333 24.1823 107 24.75C106.666 25.3177 106.195 25.7682 105.586 26.1016C104.976 26.4297 104.216 26.5938 103.304 26.5938C102.638 26.5938 102.031 26.4688 101.484 26.2188C100.942 25.9688 100.476 25.6146 100.086 25.1562C99.6951 24.6927 99.393 24.138 99.1795 23.4922C98.9711 22.8411 98.867 22.1172 98.867 21.3203V20.1875C98.867 19.3906 98.9711 18.6693 99.1795 18.0234C99.393 17.3724 99.6977 16.8151 100.094 16.3516C100.495 15.888 100.976 15.5312 101.539 15.2812C102.101 15.0312 102.734 14.9062 103.437 14.9062C104.297 14.9062 105.023 15.0677 105.617 15.3906C106.211 15.7135 106.672 16.1615 107 16.7344C107.333 17.3021 107.539 17.9609 107.617 18.7109H106.117C106.044 18.1797 105.909 17.724 105.711 17.3438C105.513 16.9583 105.232 16.6615 104.867 16.4531C104.502 16.2448 104.026 16.1406 103.437 16.1406C102.932 16.1406 102.487 16.237 102.101 16.4297C101.721 16.6224 101.401 16.8958 101.14 17.25C100.885 17.6042 100.692 18.0286 100.562 18.5234C100.432 19.0182 100.367 19.5677 100.367 20.1719V21.3203C100.367 21.8776 100.424 22.401 100.539 22.8906C100.659 23.3802 100.838 23.8099 101.078 24.1797C101.317 24.5495 101.622 24.8411 101.992 25.0547C102.362 25.263 102.799 25.3672 103.304 25.3672C103.945 25.3672 104.456 25.2656 104.836 25.0625C105.216 24.8594 105.502 24.5677 105.695 24.1875C105.893 23.8073 106.034 23.3516 106.117 22.8203ZM115.483 16.0703L111.717 26.4375H110.178L114.514 15.0625H115.506L115.483 16.0703ZM118.639 26.4375L114.865 16.0703L114.842 15.0625H115.834L120.186 26.4375H118.639ZM118.444 22.2266V23.4609H112.053V22.2266H118.444ZM130.208 25.2109V26.4375H124.52V25.2109H130.208ZM124.817 15.0625V26.4375H123.309V15.0625H124.817ZM140.433 25.2109V26.4375H134.745V25.2109H140.433ZM135.042 15.0625V26.4375H133.534V15.0625H135.042ZM155.836 15.0625H157.336V22.7578C157.336 23.612 157.146 24.3229 156.765 24.8906C156.385 25.4583 155.88 25.8854 155.25 26.1719C154.625 26.4531 153.945 26.5938 153.211 26.5938C152.44 26.5938 151.742 26.4531 151.117 26.1719C150.497 25.8854 150.005 25.4583 149.64 24.8906C149.281 24.3229 149.101 23.612 149.101 22.7578V15.0625H150.594V22.7578C150.594 23.3516 150.703 23.8411 150.922 24.2266C151.14 24.612 151.445 24.8984 151.836 25.0859C152.232 25.2734 152.69 25.3672 153.211 25.3672C153.737 25.3672 154.195 25.2734 154.586 25.0859C154.982 24.8984 155.289 24.612 155.508 24.2266C155.726 23.8411 155.836 23.3516 155.836 22.7578V15.0625ZM167.365 23.5625C167.365 23.2969 167.324 23.0625 167.24 22.8594C167.162 22.651 167.022 22.4635 166.819 22.2969C166.621 22.1302 166.345 21.9714 165.99 21.8203C165.641 21.6693 165.199 21.5156 164.662 21.3594C164.1 21.1927 163.592 21.0078 163.139 20.8047C162.686 20.5964 162.298 20.3594 161.975 20.0938C161.652 19.8281 161.404 19.5234 161.233 19.1797C161.061 18.8359 160.975 18.4427 160.975 18C160.975 17.5573 161.066 17.1484 161.248 16.7734C161.431 16.3984 161.691 16.0729 162.029 15.7969C162.373 15.5156 162.782 15.2969 163.256 15.1406C163.73 14.9844 164.259 14.9062 164.842 14.9062C165.696 14.9062 166.42 15.0703 167.014 15.3984C167.613 15.7214 168.069 16.1458 168.381 16.6719C168.694 17.1927 168.85 17.75 168.85 18.3438H167.35C167.35 17.9167 167.259 17.5391 167.076 17.2109C166.894 16.8776 166.618 16.6172 166.248 16.4297C165.878 16.237 165.41 16.1406 164.842 16.1406C164.306 16.1406 163.863 16.2214 163.514 16.3828C163.165 16.5443 162.904 16.763 162.733 17.0391C162.566 17.3151 162.483 17.6302 162.483 17.9844C162.483 18.224 162.532 18.4427 162.631 18.6406C162.735 18.8333 162.894 19.013 163.108 19.1797C163.326 19.3464 163.602 19.5 163.936 19.6406C164.274 19.7812 164.678 19.9167 165.147 20.0469C165.792 20.2292 166.35 20.4323 166.819 20.6562C167.287 20.8802 167.673 21.1328 167.975 21.4141C168.282 21.6901 168.509 22.0052 168.654 22.3594C168.806 22.7083 168.881 23.1042 168.881 23.5469C168.881 24.0104 168.787 24.4297 168.6 24.8047C168.412 25.1797 168.144 25.5 167.795 25.7656C167.446 26.0312 167.027 26.237 166.537 26.3828C166.053 26.5234 165.511 26.5938 164.912 26.5938C164.386 26.5938 163.868 26.5208 163.358 26.375C162.852 26.2292 162.391 26.0104 161.975 25.7188C161.563 25.4271 161.233 25.0677 160.983 24.6406C160.738 24.2083 160.615 23.7083 160.615 23.1406H162.115C162.115 23.5312 162.191 23.8672 162.342 24.1484C162.493 24.4245 162.699 24.6536 162.959 24.8359C163.225 25.0182 163.524 25.1536 163.858 25.2422C164.196 25.3255 164.548 25.3672 164.912 25.3672C165.438 25.3672 165.884 25.2943 166.248 25.1484C166.613 25.0026 166.889 24.7943 167.076 24.5234C167.269 24.2526 167.365 23.9323 167.365 23.5625ZM186.722 15.0625V26.4375H185.206L179.479 17.6641V26.4375H177.972V15.0625H179.479L185.229 23.8594V15.0625H186.722ZM199.751 20.3906V21.1094C199.751 21.9635 199.645 22.7292 199.431 23.4062C199.217 24.0833 198.91 24.6589 198.509 25.1328C198.108 25.6068 197.626 25.9688 197.064 26.2188C196.507 26.4688 195.882 26.5938 195.189 26.5938C194.517 26.5938 193.9 26.4688 193.337 26.2188C192.78 25.9688 192.296 25.6068 191.884 25.1328C191.478 24.6589 191.163 24.0833 190.939 23.4062C190.715 22.7292 190.603 21.9635 190.603 21.1094V20.3906C190.603 19.5365 190.712 18.7734 190.931 18.1016C191.155 17.4245 191.47 16.849 191.876 16.375C192.283 15.8958 192.764 15.5312 193.322 15.2812C193.884 15.0312 194.501 14.9062 195.173 14.9062C195.866 14.9062 196.491 15.0312 197.048 15.2812C197.611 15.5312 198.092 15.8958 198.494 16.375C198.9 16.849 199.21 17.4245 199.423 18.1016C199.642 18.7734 199.751 19.5365 199.751 20.3906ZM198.259 21.1094V20.375C198.259 19.6979 198.189 19.099 198.048 18.5781C197.913 18.0573 197.712 17.6198 197.447 17.2656C197.181 16.9115 196.856 16.6432 196.47 16.4609C196.09 16.2786 195.658 16.1875 195.173 16.1875C194.704 16.1875 194.28 16.2786 193.9 16.4609C193.525 16.6432 193.202 16.9115 192.931 17.2656C192.665 17.6198 192.46 18.0573 192.314 18.5781C192.168 19.099 192.095 19.6979 192.095 20.375V21.1094C192.095 21.7917 192.168 22.3958 192.314 22.9219C192.46 23.4427 192.668 23.8828 192.939 24.2422C193.215 24.5964 193.54 24.8646 193.915 25.0469C194.296 25.2292 194.72 25.3203 195.189 25.3203C195.678 25.3203 196.113 25.2292 196.494 25.0469C196.874 24.8646 197.194 24.5964 197.454 24.2422C197.72 23.8828 197.921 23.4427 198.056 22.9219C198.191 22.3958 198.259 21.7917 198.259 21.1094ZM206.601 23L208.859 15.0625H209.953L209.32 18.1484L206.89 26.4375H205.804L206.601 23ZM204.265 15.0625L206.062 22.8438L206.601 26.4375H205.523L202.765 15.0625H204.265ZM212.875 22.8359L214.633 15.0625H216.14L213.39 26.4375H212.312L212.875 22.8359ZM210.117 15.0625L212.312 23L213.109 26.4375H212.023L209.679 18.1484L209.039 15.0625H210.117Z" fill="#6E7191"/>
<path d="M99.6385 54.6445V54.3438C99.6385 52.4206 99.839 50.6751 100.24 49.1074C100.65 47.5397 101.188 46.1634 101.853 44.9785C102.528 43.7845 103.262 42.7956 104.054 42.0117C104.847 41.2279 105.636 40.6628 106.42 40.3164L107.172 42.3945C106.652 42.7773 106.142 43.306 105.64 43.9805C105.139 44.6458 104.683 45.4661 104.273 46.4414C103.872 47.4076 103.549 48.5469 103.303 49.8594C103.056 51.1628 102.933 52.6484 102.933 54.3164V54.6719C102.933 56.3398 103.056 57.8301 103.303 59.1426C103.549 60.446 103.872 61.5853 104.273 62.5605C104.683 63.5449 105.139 64.3743 105.64 65.0488C106.142 65.7233 106.652 66.2565 107.172 66.6484L106.42 68.6719C105.636 68.3255 104.847 67.7604 104.054 66.9766C103.262 66.2018 102.528 65.2174 101.853 64.0234C101.188 62.8385 100.65 61.4622 100.24 59.8945C99.839 58.3177 99.6385 56.5677 99.6385 54.6445ZM123.031 55V58.0898H108.689L108.498 55.6973L116.797 42.5312H119.928L116.537 48.2051L112.408 55H123.031ZM120.775 42.5312V62.4375H116.838V42.5312H120.775ZM134.762 42.4902V62.4375H130.824V47.0293L126.094 48.5332V45.4297L134.338 42.4902H134.762ZM155.187 55V58.0898H140.845L140.654 55.6973L148.953 42.5312H152.084L148.693 48.2051L144.564 55H155.187ZM152.931 42.5312V62.4375H148.994V42.5312H152.931ZM164.252 54.3438V54.6445C164.252 56.5039 164.042 58.2174 163.623 59.7852C163.204 61.3438 162.648 62.7246 161.955 63.9277C161.271 65.14 160.519 66.1471 159.699 66.9492C158.888 67.7513 158.077 68.3255 157.265 68.6719L156.5 66.6484C157.019 66.2656 157.525 65.737 158.017 65.0625C158.519 64.388 158.974 63.5586 159.385 62.5742C159.795 61.599 160.118 60.4551 160.355 59.1426C160.601 57.8301 160.724 56.3398 160.724 54.6719V54.3164C160.724 52.6484 160.601 51.1582 160.355 49.8457C160.109 48.5332 159.776 47.3893 159.357 46.4141C158.947 45.4297 158.491 44.6048 157.99 43.9395C157.498 43.265 157.001 42.7363 156.5 42.3535L157.265 40.3164C158.077 40.6628 158.888 41.2415 159.699 42.0527C160.519 42.8548 161.271 43.8574 161.955 45.0605C162.648 46.2637 163.204 47.6491 163.623 49.2168C164.042 50.7754 164.252 52.4844 164.252 54.3438ZM177.842 53.373L174.697 52.6211L175.832 42.5312H187.015V45.7168H179.072L178.58 50.1328C178.844 49.9779 179.245 49.8138 179.783 49.6406C180.321 49.4583 180.922 49.3672 181.588 49.3672C182.554 49.3672 183.411 49.5176 184.158 49.8184C184.905 50.1191 185.539 50.5566 186.058 51.1309C186.587 51.7051 186.988 52.4069 187.262 53.2363C187.535 54.0658 187.672 55.0046 187.672 56.0527C187.672 56.9368 187.535 57.7799 187.262 58.582C186.988 59.375 186.573 60.0859 186.017 60.7148C185.461 61.3346 184.764 61.8223 183.926 62.1777C183.087 62.5332 182.094 62.7109 180.945 62.7109C180.088 62.7109 179.259 62.5833 178.457 62.3281C177.664 62.0729 176.948 61.6947 176.31 61.1934C175.681 60.6921 175.176 60.0859 174.793 59.375C174.419 58.6549 174.223 57.8346 174.205 56.9141H178.115C178.17 57.4792 178.316 57.9668 178.553 58.377C178.799 58.778 179.122 59.0879 179.523 59.3066C179.924 59.5254 180.394 59.6348 180.931 59.6348C181.433 59.6348 181.861 59.5391 182.217 59.3477C182.572 59.1562 182.859 58.8919 183.078 58.5547C183.297 58.2083 183.456 57.8073 183.556 57.3516C183.666 56.8867 183.72 56.3854 183.72 55.8477C183.72 55.3099 183.657 54.8223 183.529 54.3848C183.401 53.9473 183.206 53.569 182.941 53.25C182.677 52.931 182.34 52.6849 181.929 52.5117C181.528 52.3385 181.059 52.252 180.521 52.252C179.792 52.252 179.227 52.3659 178.826 52.5938C178.434 52.8216 178.106 53.0814 177.842 53.373ZM200.373 42.3262H200.947V45.4707H200.715C199.676 45.4707 198.75 45.6257 197.939 45.9355C197.128 46.2454 196.44 46.6875 195.875 47.2617C195.319 47.8268 194.89 48.5104 194.59 49.3125C194.298 50.1146 194.152 51.0124 194.152 52.0059V55.3145C194.152 56.0254 194.22 56.6543 194.357 57.2012C194.503 57.7389 194.708 58.1901 194.972 58.5547C195.246 58.9102 195.565 59.179 195.929 59.3613C196.294 59.5345 196.704 59.6211 197.16 59.6211C197.588 59.6211 197.976 59.5299 198.322 59.3477C198.678 59.1654 198.978 58.9102 199.224 58.582C199.48 58.2448 199.671 57.8529 199.799 57.4062C199.935 56.9505 200.004 56.4538 200.004 55.916C200.004 55.3783 199.935 54.8815 199.799 54.4258C199.671 53.9701 199.48 53.5781 199.224 53.25C198.969 52.9128 198.659 52.653 198.295 52.4707C197.93 52.2884 197.52 52.1973 197.064 52.1973C196.444 52.1973 195.898 52.3431 195.424 52.6348C194.959 52.9173 194.594 53.2819 194.33 53.7285C194.066 54.1751 193.924 54.6445 193.906 55.1367L192.717 54.3711C192.744 53.6693 192.89 53.0039 193.154 52.375C193.428 51.7461 193.801 51.1901 194.275 50.707C194.758 50.2148 195.337 49.832 196.012 49.5586C196.686 49.276 197.447 49.1348 198.295 49.1348C199.224 49.1348 200.04 49.3125 200.742 49.668C201.453 50.0234 202.045 50.5111 202.519 51.1309C202.993 51.7507 203.349 52.4661 203.586 53.2773C203.823 54.0885 203.941 54.9544 203.941 55.875C203.941 56.8411 203.782 57.7389 203.463 58.5684C203.153 59.3978 202.702 60.1224 202.109 60.7422C201.526 61.362 200.824 61.8451 200.004 62.1914C199.183 62.5378 198.263 62.7109 197.242 62.7109C196.185 62.7109 195.223 62.5195 194.357 62.1367C193.5 61.7448 192.762 61.1979 192.142 60.4961C191.523 59.7943 191.044 58.9603 190.707 57.9941C190.379 57.028 190.215 55.9707 190.215 54.8223V53.291C190.215 51.6868 190.447 50.2194 190.912 48.8887C191.386 47.5488 192.065 46.3913 192.949 45.416C193.833 44.4316 194.9 43.6706 196.148 43.1328C197.397 42.5951 198.805 42.3262 200.373 42.3262ZM219.814 42.5312V44.6504L212.117 62.4375H207.961L215.658 45.6074H205.746V42.5312H219.814ZM237.273 52.3477V55.4375H229.549V52.3477H237.273ZM260.98 59.3613V62.4375H247.363V59.8125L253.803 52.9082C254.45 52.1882 254.96 51.5547 255.334 51.0078C255.707 50.4518 255.976 49.9551 256.14 49.5176C256.314 49.071 256.4 48.6471 256.4 48.2461C256.4 47.6445 256.3 47.1296 256.099 46.7012C255.899 46.2637 255.603 45.9264 255.211 45.6895C254.828 45.4525 254.354 45.334 253.789 45.334C253.187 45.334 252.668 45.4798 252.23 45.7715C251.802 46.0632 251.474 46.4688 251.246 46.9883C251.027 47.5078 250.918 48.0957 250.918 48.752H246.967C246.967 47.5671 247.249 46.4824 247.814 45.498C248.379 44.5046 249.177 43.7161 250.207 43.1328C251.237 42.5404 252.458 42.2441 253.871 42.2441C255.265 42.2441 256.441 42.472 257.398 42.9277C258.364 43.3743 259.094 44.0215 259.586 44.8691C260.087 45.7077 260.338 46.7103 260.338 47.877C260.338 48.5332 260.233 49.1758 260.023 49.8047C259.814 50.4245 259.513 51.0443 259.121 51.6641C258.738 52.2747 258.273 52.8945 257.726 53.5234C257.179 54.1523 256.573 54.804 255.908 55.4785L252.449 59.3613H260.98ZM273.039 42.4902V62.4375H269.101V47.0293L264.371 48.5332V45.4297L272.615 42.4902H273.039ZM292.918 50.7344V54.1797C292.918 55.6745 292.758 56.9642 292.439 58.0488C292.12 59.1243 291.66 60.0085 291.058 60.7012C290.466 61.3848 289.76 61.8906 288.939 62.2188C288.119 62.5469 287.207 62.7109 286.205 62.7109C285.403 62.7109 284.655 62.6107 283.963 62.4102C283.27 62.2005 282.646 61.877 282.09 61.4395C281.543 61.002 281.069 60.4505 280.668 59.7852C280.276 59.1107 279.975 58.3086 279.765 57.3789C279.556 56.4492 279.451 55.3828 279.451 54.1797V50.7344C279.451 49.2396 279.61 47.959 279.929 46.8926C280.258 45.8171 280.718 44.9375 281.31 44.2539C281.912 43.5703 282.623 43.069 283.443 42.75C284.263 42.4219 285.175 42.2578 286.178 42.2578C286.98 42.2578 287.722 42.3626 288.406 42.5723C289.099 42.7728 289.723 43.0872 290.279 43.5156C290.835 43.944 291.309 44.4954 291.701 45.1699C292.093 45.8353 292.394 46.6328 292.603 47.5625C292.813 48.4831 292.918 49.5404 292.918 50.7344ZM288.967 54.6992V50.2012C288.967 49.4811 288.926 48.8522 288.844 48.3145C288.771 47.7767 288.657 47.321 288.502 46.9473C288.347 46.5645 288.155 46.2546 287.928 46.0176C287.7 45.7806 287.44 45.6074 287.148 45.498C286.857 45.3887 286.533 45.334 286.178 45.334C285.731 45.334 285.334 45.4206 284.988 45.5938C284.651 45.7669 284.364 46.0449 284.127 46.4277C283.89 46.8014 283.707 47.3027 283.58 47.9316C283.461 48.5514 283.402 49.3079 283.402 50.2012V54.6992C283.402 55.4193 283.439 56.0527 283.512 56.5996C283.594 57.1465 283.712 57.6159 283.867 58.0078C284.031 58.3906 284.222 58.7051 284.441 58.9512C284.669 59.1882 284.929 59.3613 285.22 59.4707C285.521 59.5801 285.849 59.6348 286.205 59.6348C286.642 59.6348 287.03 59.5482 287.367 59.375C287.713 59.1927 288.005 58.9102 288.242 58.5273C288.488 58.1354 288.67 57.625 288.789 56.9961C288.907 56.3672 288.967 55.6016 288.967 54.6992ZM298.387 59.4434H298.646C299.74 59.4434 300.679 59.3112 301.463 59.0469C302.256 58.7734 302.907 58.3815 303.418 57.8711C303.928 57.3607 304.306 56.7363 304.553 55.998C304.799 55.2507 304.922 54.403 304.922 53.4551V49.6816C304.922 48.9616 304.849 48.3281 304.703 47.7812C304.566 47.2344 304.366 46.7832 304.101 46.4277C303.846 46.0632 303.545 45.7897 303.199 45.6074C302.862 45.4251 302.488 45.334 302.078 45.334C301.64 45.334 301.253 45.4434 300.916 45.6621C300.579 45.8717 300.291 46.1589 300.054 46.5234C299.827 46.888 299.649 47.3073 299.521 47.7812C299.403 48.2461 299.344 48.7337 299.344 49.2441C299.344 49.7546 299.403 50.2422 299.521 50.707C299.64 51.1628 299.817 51.5684 300.054 51.9238C300.291 52.2702 300.588 52.5482 300.943 52.7578C301.299 52.9583 301.718 53.0586 302.201 53.0586C302.666 53.0586 303.081 52.972 303.445 52.7988C303.819 52.6165 304.133 52.3796 304.388 52.0879C304.653 51.7962 304.853 51.4727 304.99 51.1172C305.136 50.7617 305.209 50.4017 305.209 50.0371L306.508 50.748C306.508 51.3861 306.371 52.015 306.097 52.6348C305.824 53.2546 305.441 53.8197 304.949 54.3301C304.466 54.8314 303.905 55.2324 303.267 55.5332C302.629 55.834 301.946 55.9844 301.217 55.9844C300.287 55.9844 299.462 55.8158 298.742 55.4785C298.022 55.1322 297.411 54.6582 296.91 54.0566C296.418 53.446 296.044 52.735 295.789 51.9238C295.534 51.1126 295.406 50.2331 295.406 49.2852C295.406 48.319 295.561 47.4121 295.871 46.5645C296.19 45.7168 296.641 44.9694 297.224 44.3223C297.817 43.6751 298.523 43.1693 299.344 42.8047C300.173 42.431 301.094 42.2441 302.105 42.2441C303.117 42.2441 304.038 42.4401 304.867 42.832C305.696 43.224 306.407 43.7799 307 44.5C307.592 45.2109 308.048 46.0632 308.367 47.0566C308.695 48.0501 308.859 49.153 308.859 50.3652V51.7324C308.859 53.0267 308.718 54.2298 308.435 55.3418C308.162 56.4538 307.747 57.4609 307.191 58.3633C306.644 59.2565 305.961 60.0221 305.14 60.6602C304.329 61.2982 303.386 61.7858 302.31 62.123C301.235 62.4603 300.032 62.6289 298.701 62.6289H298.387V59.4434Z" fill="#211F54"/>
<defs>
<filter id="filter0_d_1_1630" x="0" y="0.4375" width="91.9423" height="92" filterUnits="userSpaceOnUse" color-interpolation-filters="sRGB">
<feFlood flood-opacity="0" result="BackgroundImageFix"/>
<feColorMatrix in="SourceAlpha" type="matrix" values="0 0 0 0 0 0 0 0 0 0 0 0 0 0 0 0 0 0 127 0" result="hardAlpha"/>
<feOffset dy="4"/>
<feGaussianBlur stdDeviation="5"/>
<feColorMatrix type="matrix" values="0 0 0 0 0.0784314 0 0 0 0 0.0784314 0 0 0 0 0.168627 0 0 0 0.04 0"/>
<feBlend mode="normal" in2="BackgroundImageFix" result="effect1_dropShadow_1_1630"/>
<feBlend mode="normal" in="SourceGraphic" in2="effect1_dropShadow_1_1630" result="shape"/>
</filter>
<clipPath id="clip0_1_1630">
<rect width="71.9423" height="72" fill="white" transform="translate(10 6.4375)"/>
</clipPath>
</defs>
</svg>
